<?xml version="1.0" encoding="UTF-8"?>
<!-- Created with Inkscape (http://www.inkscape.org/) -->
<svg width="49.42mm" height="49.1mm" version="1.1" viewBox="0 0 49.42 49.1" xmlns="http://www.w3.org/2000/svg" xmlns:cc="http://creativecommons.org/ns#" xmlns:dc="http://purl.org/dc/elements/1.1/" xmlns:rdf="http://www.w3.org/1999/02/22-rdf-syntax-ns#">
 <defs>
  <clipPath id="presentation_clip_path">
   <rect width="29700" height="21000"/>
  </clipPath>
  <linearGradient id="gradient1" x1="3653" x2="3067" y1="10262" y2="7248" gradientUnits="userSpaceOnUse">
   <stop stop-color="#307491" offset=".07"/>
   <stop stop-color="#6ebeda" offset="1"/>
  </linearGradient>
  <linearGradient id="gradient2" x1="3632" x2="2140" y1="9119" y2="12633" gradientUnits="userSpaceOnUse">
   <stop stop-color="#52add2" offset=".04"/>
   <stop stop-color="#a0dbef" offset="1"/>
  </linearGradient>
  <linearGradient id="gradient3" x1="3346" x2="4208" y1="8748" y2="8748" gradientUnits="userSpaceOnUse">
   <stop stop-color="#989ba0" offset="0"/>
   <stop stop-color="#c7d0e4" offset="1"/>
  </linearGradient>
  <linearGradient id="gradient4" x1="4594" x2="6117" y1="10794" y2="7373" gradientUnits="userSpaceOnUse">
   <stop stop-color="#a7a7a5" offset=".04"/>
   <stop stop-color="#dfddc7" offset="1"/>
  </linearGradient>
 </defs>
 <metadata>
  <rdf:RDF>
   <cc:Work rdf:about="">
    <dc:format>image/svg+xml</dc:format>
    <dc:type rdf:resource="http://purl.org/dc/dcmitype/StillImage"/>
    <dc:title/>
   </cc:Work>
  </rdf:RDF>
 </metadata>
 <g transform="translate(-69.784 -53.224)">
  <g transform="matrix(.01 0 0 .01 53.434 -21.886)" fill-rule="evenodd" stroke-linejoin="round" stroke-width="28.222">
   <g class="Master_Slide"></g>
   <g class="SlideGroup">
    <g class="Slide" clip-path="url(#presentation_clip_path)">
     <g class="Page">
      <g class="com.sun.star.drawing.ClosedBezierShape">
       <rect class="BoundingBox" x="3937" y="9805" width="1950" height="561" fill="none"/>
       <path d="m3947 10079s350 217 915 270c566 54 1023-53 1023-53s-673-406-1023-460c-349-52-925-23-925-23z" fill="#989ba0"/>
      </g>
      <g class="com.sun.star.drawing.ClosedBezierShape">
       <rect class="BoundingBox" x="1716" y="7511" width="3289" height="2489" fill="none"/>
       <path d="m4137 9999-17-16-52-44-89-63-129-76-170-82-214-78-260-69-309-51-1181-140 12-44 39-120 71-180 107-221 146-247 90-128 102-127 114-125 127-121 140-114 154-106 163-92 165-74 165-58 164-45 161-31 156-21 149-12 141-3 250 10 196 23 127 23 46 11 17 26 42 73 59 115 64 152 59 182 24 100 19 107 13 111 6 115-4 118-14 121-27 120-39 118-51 114-60 110-66 104-71 100-149 178-145 148-123 113-86 71z" fill="url(#gradient1)"/>
      </g>
      <g class="com.sun.star.drawing.ClosedBezierShape">
       <rect class="BoundingBox" x="1635" y="9332" width="2503" height="3089" fill="none"/>
       <path d="m3518 12419-5-120 1-137 7-177 19-208 34-232 54-246 78-252 169-448 137-329 92-203 33-69-20-22-60-59-98-86-135-102-172-107-99-51-108-50-117-45-125-39-134-33-142-25-276-30-243-15-208-1-172 6-135 12-98 13-59 11-20 4-14 54-29 149-28 228-10 289 8 161 18 170 31 176 47 180 63 183 84 182 104 179 129 175 140 161 136 141 133 122 127 105 122 88 115 74 109 60 100 49 91 38 82 28 71 20 60 14 48 8 36 4z" fill="url(#gradient2)"/>
      </g>
      <g class="com.sun.star.drawing.ClosedBezierShape">
       <rect class="BoundingBox" x="3141" y="8103" width="1276" height="1276" fill="none"/>
       <path d="m3779 8103h-1c118 0 218 27 319 85 102 59 175 132 234 234 58 101 85 201 85 318v1c0 117-27 217-85 318-59 102-132 175-234 234-101 58-201 85-318 85-118 0-218-27-319-85-102-59-175-132-234-234-58-101-85-201-85-318 0-118 27-218 85-319 59-102 132-175 234-234 101-58 201-85 318-85z" fill="#fff"/>
      </g>
      <g class="com.sun.star.drawing.ClosedBezierShape">
       <rect class="BoundingBox" x="3345" y="8316" width="864" height="864" fill="none"/>
       <path d="m3777 8317 29 1 28 2 28 5 27 6 26 8 26 10 25 12 26 14 25 15 23 16 22 18 20 19 19 20 18 21 16 23 15 25 14 26 12 26 10 26 8 26 6 27 5 28 2 28 1 29-1 29-2 28-5 28-6 27-8 26-10 26-12 26-14 26-15 25-16 23-18 21-19 20-20 19-21 18-23 16-25 15-26 14-26 12-26 10-26 8-27 6-28 5-28 2-29 1-29-1-28-2-28-5-27-6-26-8-26-10-25-12-26-14-25-15-23-16-22-18-20-19-19-20-18-21-16-23-15-25-14-26-12-26-10-26-8-26-6-27-5-28-2-28-1-29 1-29 2-28 5-28 6-27 8-26 10-26 12-25 14-26 15-25 16-23 18-22 19-20 20-19 21-18 23-16 25-15 26-14 26-12 26-10 26-8 27-6 28-5 28-2z" fill="url(#gradient3)"/>
      </g>
      <g class="com.sun.star.drawing.ClosedBezierShape">
       <rect class="BoundingBox" x="3665" y="8479" width="509" height="509" fill="none"/>
       <path d="m3919 8479c47 0 87 11 127 34s70 53 93 93 34 80 34 127-11 87-34 127-53 70-93 93-80 34-127 34-87-11-127-34-70-53-93-93-34-80-34-127 11-87 34-127 53-70 93-93 80-34 127-34z" fill="#151616"/>
      </g>
      <g class="com.sun.star.drawing.ClosedBezierShape">
       <rect class="BoundingBox" x="4136" y="7578" width="2441" height="3015" fill="none"/>
       <path d="m4700 7578 35 6 97 24 148 48 188 80 105 54 112 65 116 77 119 89 120 102 121 117 120 132 118 148 107 161 90 167 75 172 61 175 48 174 36 172 44 327 15 287-3 230-9 151-6 55-102-82-117-87-151-103-179-110-200-106-214-91-110-37-111-29-111-21-111-14-110-7-107-2-206 11-186 23-285 52-85 14-14 2h-10l-8-1-2-2-2-1 19-15 51-46 75-78 92-109 100-142 100-175 48-100 44-109 41-117 36-125 29-130 20-130 19-252-4-238-19-213-27-181-29-140-22-90z" fill="url(#gradient4)"/>
      </g>
      <g class="com.sun.star.drawing.ClosedBezierShape">
       <rect class="BoundingBox" x="3867" y="8570" width="246" height="247" fill="none"/>
       <path d="m3988 8570h2c22 0 41 5 61 16 19 12 33 26 45 45 11 20 16 39 16 61 0 23-5 42-16 62-12 19-26 33-45 45-20 11-39 16-61 16-23 0-42-5-62-16-19-12-33-26-45-45-11-20-16-39-16-62 0-22 5-41 16-61 12-19 26-33 45-45 19-11 38-16 60-16z" fill="#fff"/>
      </g>
     </g>
    </g>
   </g>
  </g>
 </g>
</svg>
